<?xml version="1.0" encoding="utf-8"?>
<!-- Generator: Adobe Illustrator 21.1.0, SVG Export Plug-In . SVG Version: 6.00 Build 0)  -->
<svg version="1.1" id="Calque_1" xmlns="http://www.w3.org/2000/svg" xmlns:xlink="http://www.w3.org/1999/xlink" x="0px" y="0px"
	 viewBox="0 0 100 41" style="enable-background:new 0 0 100 41;" xml:space="preserve">
<style type="text/css">
	.st0{fill:#FFFFFF;}
</style>
<path class="st0" d="M61.493,8.532c-2.768,0-4.778,1.167-6.399,3.376c-1.105-2.533-3.394-3.376-5.959-3.376
	c-2.488,0-4.661,1.367-5.884,3.455h-0.08V9.135h-7.502c3.153,2.219,5.035,5.946,5.035,10.904c0,4.126-1.722,7.611-4.411,9.95h7.075
	V19.823c0-4.26,1.027-5.665,3.436-5.665c1.814,0,2.526,1.528,2.526,3.979v11.852h6.711V19.784c0-3.377,0.278-5.626,3.157-5.626
	c1.738,0,2.807,1.327,2.807,3.578v12.254h6.712V17.533C68.716,13.556,68.003,8.532,61.493,8.532z"/>
<g>
	<path class="st0" d="M24.309,21.066c0.122,2.853,1.74,4.74,4.58,4.74c1.619,0,3.199-0.762,3.83-2.29h6.277
		c-1.224,4.823-5.605,6.911-10.183,6.911c-6.674,0-11.217-4.097-11.217-11.09c0-6.388,5.015-10.969,11.056-10.969
		c7.344,0,11.015,5.625,10.702,12.697H24.309z M32.641,17.249c-0.12-2.328-1.74-4.258-3.989-4.258c-2.37,0-3.947,1.727-4.343,4.258
		H32.641z"/>
</g>
<path class="st0" d="M16.649,23.13c-0.908,1.428-2.841,2.271-4.669,2.271c-2.841,0-3.987-2.772-3.987-5.464
	c0-2.893,0.591-6.147,4.343-6.147c1.419,0,3.644,0.87,4.371,2.187c0.504-1.879,1.416-3.546,2.624-4.922
	C17.45,9.397,14.82,8.566,12.02,8.566c-6.594,0-10.738,4.742-10.738,11.37c0,6.388,4.579,10.687,10.738,10.687
	c2.8,0,5.279-0.854,7.118-2.437C17.96,26.819,17.112,25.122,16.649,23.13z"/>
<path class="st0" d="M89.032,24.853v-9.119c0-4.93-4.601-6.994-8.668-6.994c-2.329,0-4.698,0.403-6.514,1.447
	c-1.818,1.085-3.08,2.853-3.2,5.586h6.281c0.315-1.768,1.501-2.611,3.354-2.611c1.382,0,2.352,0.601,2.352,2.168
	c0,1.287-1.428,1.84-1.778,1.929c-0.35,0.089-8.112,0.621-10.469,3.1v8.337c1.269,1.417,3.261,2.103,5.533,2.103
	c2.451,0,5.016-0.722,6.753-2.569c0.077,0.681,0.155,1.326,0.395,1.968h6.75C89.032,28.55,89.032,26.622,89.032,24.853z
	 M78.449,26.581c-1.501,0-2.801-0.683-2.801-2.37c0-1.649,1.261-2.289,2.762-2.651c1.463-0.402,3.198-0.524,4.149-1.126
	C82.712,24.734,81.644,26.581,78.449,26.581z"/>
<g>
	<g>
		<path class="st0" d="M97.758,32.008c0,5.265-1.994,6.992-6.592,6.992h-8.344v-5.545h6.348c1.344-0.039,2.07-0.442,2.07-1.927V9.65
			h6.518V32.008z"/>
	</g>
</g>
<g>
	<polygon class="st0" points="91.167,1.596 97.756,1.596 97.756,8.302 91.167,8.302 91.167,1.596 	"/>
</g>
</svg>
