<?xml version="1.0" encoding="utf-8"?>
<!-- Generator: Adobe Illustrator 21.1.0, SVG Export Plug-In . SVG Version: 6.00 Build 0)  -->
<svg version="1.1" xmlns="http://www.w3.org/2000/svg" xmlns:xlink="http://www.w3.org/1999/xlink" x="0px" y="0px"
	 viewBox="0 0 300 32" style="enable-background:new 0 0 300 32;" xml:space="preserve">
<style type="text/css">
	.st0{display:none;}
	.st1{display:inline;}
	.st2{fill:#0F4060;}
	.st3{font-family:'Sofia-Bold';}
	.st4{font-size:28px;}
	.st5{fill:#FFFFFF;}
	.st6{font-family:'Sofia-Medium';}
</style>
<g id="Calque_1" class="st0">
	<text transform="matrix(1 0 0 1 -0.1426 24.501)" class="st1"><tspan x="0" y="0" class="st2 st3 st4">Droit </tspan><tspan x="69.043" y="0" class="st5 st6 st4">pour le </tspan><tspan x="164.896" y="0" class="st5 st3 st4">praticien</tspan></text>
</g>
<g id="vect">
	<g>
		<path class="st2" d="M2.072,24.501V4.896h5.807c1.79,0,3.439,0.438,4.951,1.312s2.705,2.064,3.582,3.568s1.315,3.145,1.315,4.922
			s-0.438,3.418-1.315,4.922s-2.07,2.693-3.582,3.568s-3.161,1.312-4.951,1.312H2.072z M5.436,21.11h2.434
			c1.167,0,2.244-0.287,3.233-0.861c0.989-0.574,1.771-1.354,2.345-2.338s0.861-2.055,0.861-3.213c0-1.157-0.287-2.229-0.861-3.213
			s-1.356-1.764-2.345-2.338c-0.989-0.574-2.067-0.861-3.233-0.861H5.436V21.11z"/>
		<path class="st2" d="M20.734,24.501V10.87h3.418v2.001c0.208-0.381,0.468-0.71,0.78-0.987c0.312-0.277,0.634-0.486,0.964-0.626
			c0.331-0.141,0.638-0.241,0.923-0.299c0.285-0.059,0.563-0.089,0.835-0.089h0.271v3.391h-0.828c-0.308,0-0.618,0.039-0.93,0.116
			c-0.312,0.078-0.626,0.203-0.943,0.376c-0.317,0.174-0.575,0.436-0.773,0.788c-0.199,0.351-0.299,0.769-0.299,1.252v7.708H20.734z
			"/>
		<path class="st2" d="M30.182,17.638c0-1.267,0.312-2.44,0.937-3.521c0.624-1.08,1.474-1.935,2.55-2.563
			c1.075-0.629,2.247-0.943,3.514-0.943c1.267,0,2.44,0.314,3.521,0.943s1.935,1.483,2.563,2.563s0.943,2.254,0.943,3.521
			c0,1.276-0.314,2.454-0.943,3.534s-1.483,1.933-2.563,2.557c-1.08,0.625-2.254,0.937-3.521,0.937
			c-1.267,0-2.438-0.312-3.514-0.937c-1.076-0.624-1.926-1.477-2.55-2.557C30.494,20.092,30.182,18.914,30.182,17.638z
			 M34.598,15.067c-0.72,0.711-1.08,1.568-1.08,2.57c0,1.003,0.36,1.859,1.08,2.57c0.72,0.711,1.581,1.066,2.584,1.066
			c1.002,0,1.864-0.355,2.584-1.066c0.72-0.711,1.08-1.567,1.08-2.57c0-1.002-0.36-1.859-1.08-2.57
			c-0.72-0.711-1.582-1.066-2.584-1.066C36.179,14.001,35.317,14.356,34.598,15.067z"/>
		<path class="st2" d="M47.654,24.501V10.87h3.418v13.631H47.654z M47.682,8.286V4.896H51.1v3.391H47.682z"/>
		<path class="st2" d="M54.258,14.069V10.87h1.422V4.896h3.418v5.975h1.928v3.199h-1.928v10.432H55.68V14.069H54.258z"/>
		<path class="st5" d="M71.143,30.667V11.062h2.83v1.244c1.285-0.92,2.666-1.38,4.143-1.38c1.249,0,2.404,0.308,3.466,0.924
			c1.062,0.616,1.902,1.455,2.522,2.518c0.62,1.063,0.93,2.224,0.93,3.483c0,1.248-0.31,2.401-0.93,3.462
			c-0.62,1.061-1.461,1.899-2.522,2.513c-1.062,0.615-2.217,0.922-3.466,0.922c-1.796,0-3.177-0.627-4.143-1.882v7.802H71.143z
			 M73.973,17.985c0.045,1.088,0.467,2.016,1.265,2.782c0.797,0.767,1.757,1.149,2.878,1.149c1.13,0,2.094-0.395,2.892-1.184
			c0.797-0.789,1.196-1.75,1.196-2.884c0-1.143-0.396-2.111-1.189-2.904s-1.759-1.19-2.898-1.19c-1.14,0-2.115,0.399-2.926,1.197
			c-0.812,0.798-1.217,1.764-1.217,2.897V17.985z"/>
		<path class="st5" d="M87.398,17.754c0-1.25,0.311-2.409,0.934-3.476c0.623-1.067,1.467-1.911,2.534-2.532
			c1.067-0.62,2.224-0.931,3.47-0.931s2.403,0.311,3.468,0.932s1.91,1.466,2.534,2.534s0.936,2.226,0.936,3.473
			s-0.312,2.4-0.936,3.461c-0.624,1.061-1.468,1.901-2.534,2.521c-1.065,0.62-2.222,0.929-3.469,0.929
			c-1.911,0-3.545-0.676-4.902-2.028C88.077,21.285,87.398,19.657,87.398,17.754z M90.229,17.754c0,1.128,0.4,2.091,1.201,2.887
			c0.8,0.796,1.77,1.194,2.907,1.194c1.137,0,2.106-0.398,2.907-1.194c0.801-0.796,1.201-1.758,1.201-2.887
			c0-1.146-0.4-2.118-1.201-2.914c-0.801-0.796-1.77-1.194-2.907-1.194c-1.138,0-2.107,0.398-2.907,1.194
			C90.629,15.636,90.229,16.607,90.229,17.754z"/>
		<path class="st5" d="M104.693,18.813v-7.752h2.83v7.752c0,0.857,0.291,1.579,0.873,2.167s1.305,0.882,2.169,0.882
			c0.818,0,1.514-0.287,2.087-0.861c0.573-0.574,0.882-1.276,0.928-2.105v-7.834h2.83v13.439h-2.83V23.38
			c-0.282,0.429-0.712,0.754-1.289,0.978c-0.578,0.223-1.153,0.335-1.726,0.335c-1.198,0-2.248-0.264-3.149-0.793
			c-0.901-0.528-1.58-1.235-2.037-2.119C104.922,20.896,104.693,19.907,104.693,18.813z"/>
		<path class="st5" d="M120.785,24.501V11.062h2.83v1.219c0.2-0.361,0.647-0.655,1.34-0.88s1.372-0.338,2.037-0.338h0.533v2.83
			h-0.533c-0.273,0-0.549,0.025-0.827,0.075c-0.278,0.051-0.574,0.144-0.889,0.281s-0.59,0.313-0.827,0.528
			s-0.436,0.502-0.595,0.864c-0.159,0.361-0.239,0.77-0.239,1.227v7.635H120.785z"/>
		<path class="st5" d="M136.727,24.501V4.896h2.83v19.605H136.727z"/>
		<path class="st5" d="M142.988,17.815c0-1.239,0.306-2.383,0.916-3.432c0.61-1.048,1.438-1.877,2.481-2.488
			c1.044-0.61,2.181-0.916,3.411-0.916c1.066,0,2.071,0.239,3.015,0.718s1.723,1.105,2.338,1.88
			c0.615,0.775,1.051,1.673,1.306,2.693c0.137,0.529,0.205,1.066,0.205,1.613c0,0.501-0.06,0.998-0.178,1.49H146.01
			c0.246,0.748,0.736,1.374,1.47,1.88s1.506,0.759,2.317,0.759c0.556,0,1.021-0.082,1.395-0.246s0.766-0.419,1.176-0.766
			l3.104,0.643c-0.757,1.012-1.634,1.759-2.632,2.242c-0.998,0.483-2.012,0.725-3.042,0.725c-1.23,0-2.367-0.303-3.411-0.909
			c-1.044-0.606-1.871-1.431-2.481-2.475C143.294,20.183,142.988,19.046,142.988,17.815z M145.928,16.667h7.697
			c-0.255-0.822-0.738-1.503-1.449-2.045c-0.711-0.542-1.504-0.812-2.379-0.812c-0.848,0-1.632,0.275-2.352,0.826
			S146.22,15.864,145.928,16.667z"/>
		<path class="st5" d="M166.996,30.435V10.843h3.363v2.229c0.237-0.738,0.747-1.314,1.531-1.729
			c0.784-0.415,1.586-0.622,2.406-0.622c1.914,0,3.514,0.679,4.799,2.037c1.285,1.357,1.928,3.019,1.928,4.984
			s-0.643,3.629-1.928,4.991c-1.285,1.362-2.885,2.043-4.799,2.043c-0.82,0-1.622-0.208-2.406-0.625
			c-0.784-0.417-1.294-0.996-1.531-1.737v8.022H166.996z M171.48,15.031c-0.692,0.742-1.039,1.645-1.039,2.709
			s0.347,1.97,1.039,2.716c0.692,0.746,1.54,1.119,2.543,1.119c1.012,0,1.875-0.373,2.591-1.119
			c0.716-0.746,1.073-1.651,1.073-2.716s-0.357-1.967-1.073-2.709c-0.716-0.741-1.579-1.112-2.591-1.112
			C173.021,13.919,172.173,14.29,171.48,15.031z"/>
		<path class="st5" d="M184.455,24.501V10.87h3.418v2.001c0.208-0.381,0.468-0.71,0.78-0.987s0.634-0.486,0.964-0.626
			s0.638-0.241,0.923-0.299c0.285-0.059,0.563-0.089,0.835-0.089h0.271v3.391h-0.828c-0.308,0-0.617,0.039-0.93,0.116
			c-0.312,0.078-0.627,0.203-0.943,0.376c-0.316,0.174-0.574,0.436-0.773,0.788c-0.199,0.351-0.299,0.769-0.299,1.252v7.708H184.455
			z"/>
		<path class="st5" d="M193.902,17.495c0-1.925,0.638-3.526,1.914-4.804c1.276-1.277,2.88-1.916,4.812-1.916
			c0.82,0,1.622,0.205,2.406,0.613s1.294,0.973,1.531,1.693v-2.21h3.363v13.631h-3.363v-2.314c-0.237,0.761-0.747,1.355-1.531,1.783
			s-1.586,0.641-2.406,0.641c-1.914,0-3.514-0.688-4.799-2.062C194.545,21.172,193.902,19.488,193.902,17.495z M197.238,17.576
			c0,1.064,0.357,1.97,1.073,2.716c0.716,0.746,1.579,1.119,2.591,1.119s1.875-0.373,2.591-1.119
			c0.716-0.746,1.073-1.651,1.073-2.716c0-1.046-0.355-1.908-1.066-2.586c-0.711-0.678-1.577-1.017-2.598-1.017
			s-1.887,0.339-2.598,1.017C197.594,15.668,197.238,16.53,197.238,17.576z"/>
		<path class="st5" d="M211.102,14.069V10.87h1.422V4.896h3.418v5.975h1.928v3.199h-1.928v10.432h-3.418V14.069H211.102z"/>
		<path class="st5" d="M221,24.501V10.87h3.418v13.631H221z M221.027,8.286V4.896h3.418v3.391H221.027z"/>
		<path class="st5" d="M228.485,20.331c-0.369-0.875-0.554-1.791-0.554-2.748s0.185-1.873,0.554-2.748s0.868-1.629,1.497-2.263
			c0.629-0.633,1.383-1.137,2.263-1.511c0.88-0.374,1.803-0.561,2.769-0.561c1.941,0,3.56,0.634,4.854,1.9l-0.766,3.309
			c-1.304-1.157-2.639-1.736-4.006-1.736c-1.003,0-1.868,0.354-2.598,1.06c-0.729,0.707-1.094,1.557-1.094,2.55
			c0,0.994,0.364,1.844,1.094,2.55c0.729,0.707,1.595,1.06,2.598,1.06c1.367,0,2.702-0.579,4.006-1.736l0.766,3.309
			c-1.294,1.267-2.912,1.9-4.854,1.9c-0.966,0-1.889-0.187-2.769-0.561c-0.88-0.374-1.634-0.877-2.263-1.511
			C229.354,21.96,228.854,21.206,228.485,20.331z"/>
		<path class="st5" d="M243.75,24.501V10.87h3.418v13.631H243.75z M243.777,8.286V4.896h3.418v3.391H243.777z"/>
		<path class="st5" d="M250.654,17.692c0-0.966,0.152-1.88,0.458-2.741s0.743-1.625,1.312-2.29c0.569-0.665,1.299-1.191,2.188-1.579
			c0.889-0.387,1.875-0.581,2.96-0.581c1.44,0,2.695,0.335,3.767,1.005s1.868,1.543,2.393,2.618
			c0.524,1.076,0.786,2.265,0.786,3.568c0,0.365-0.055,0.784-0.164,1.258h-10.309c0.055,0.692,0.439,1.276,1.155,1.75
			s1.506,0.711,2.372,0.711c0.429,0,0.884-0.076,1.367-0.229c0.483-0.152,0.884-0.422,1.203-0.81l3.391,0.631
			c-0.593,1.105-1.42,1.983-2.481,2.633c-1.062,0.65-2.222,0.975-3.479,0.975s-2.418-0.308-3.479-0.923s-1.9-1.454-2.516-2.516
			C250.962,20.11,250.654,18.95,250.654,17.692z M253.963,16.353h7.273c-0.128-0.77-0.528-1.404-1.203-1.904
			c-0.675-0.499-1.504-0.749-2.488-0.749c-0.966,0-1.772,0.256-2.42,0.768C254.478,14.98,254.091,15.608,253.963,16.353z"/>
		<path class="st5" d="M267.977,24.501V10.87h3.363v2.027c0.319-0.698,0.822-1.24,1.511-1.626s1.311-0.579,1.866-0.579
			c1.146,0,2.115,0.273,2.911,0.82s1.375,1.265,1.738,2.153c0.364,0.889,0.546,1.907,0.546,3.056v7.779h-3.336v-7.759
			c0-0.755-0.258-1.386-0.772-1.896c-0.515-0.509-1.137-0.764-1.866-0.764c-0.692,0-1.287,0.248-1.784,0.743
			c-0.497,0.496-0.768,1.107-0.813,1.834v7.841H267.977z"/>
	</g>
</g>
</svg>
