<?xml version="1.0" encoding="utf-8"?>
<!-- Generator: Adobe Illustrator 21.1.0, SVG Export Plug-In . SVG Version: 6.00 Build 0)  -->
<svg version="1.1" id="Calque_1" xmlns="http://www.w3.org/2000/svg" xmlns:xlink="http://www.w3.org/1999/xlink" x="0px" y="0px"
	 viewBox="0 0 100 67" style="enable-background:new 0 0 100 67;" xml:space="preserve">
<style type="text/css">
	.st0{fill:#FFFFFF;}
	.st1{opacity:0.7;fill:#FFFFFF;}
</style>
<path class="st0" d="M45.523,38.597h8.372V12.201h-8.372V38.597z M34.525,12.299c-3.054,0-6.501,1.626-8.027,4.236h-0.1l0.006-3.384
	c0,0.004,0,0.009,0,0.015c0-0.009,0-0.015,0-0.025c0-0.033,0-0.069,0-0.103c0-0.263,0-0.533,0-0.839h-8.372v14.527
	c0,4.531-2.759,5.715-4.58,5.715c-2.661,0-4.136-1.184-4.136-4.58V12.201H0.944v16.2c0,6.699,2.117,10.932,9.454,10.932
	c2.956,0,6.206-1.624,7.781-4.233h0.098v3.497h8.368V24.66c0-2.808,1.378-5.466,4.531-5.466c4.578,0,4.185,3.545,4.185,7.041v12.362
	h8.372v-16.4C43.734,18.505,43.044,12.299,34.525,12.299z M26.405,13.167c-0.002,2.67-0.006,3.368-0.006,3.368
	S26.405,16.528,26.405,13.167z M45.517,2v8.378h8.379V2H45.517z"/>
<path class="st1" d="M79.737,23.181h10.394c-0.15-2.853-2.169-5.218-4.977-5.218C82.2,17.963,80.231,20.08,79.737,23.181z
	 M98.503,25.909v1.872l-0.002,0.078H79.737c0.147,3.5,2.168,5.815,5.713,5.815c2.018,0,3.989-0.937,4.776-2.811h7.832
	c-1.526,5.911-6.994,8.469-12.707,8.469c-5.82,0-10.34-2.454-12.528-6.861v6.125H64.45V26.235c0-3.496,0.393-7.041-4.187-7.041
	c-2.84,0-4.241,2.157-4.491,4.636V16.23c1.609-2.432,4.906-3.931,7.842-3.931c6.869,0,8.649,4.033,9.077,7.536
	c2.229-4.598,7.01-7.536,12.464-7.536C93.616,12.299,98.171,18.181,98.503,25.909z"/>
<path class="st0" d="M26.411,52.311c0.289-0.108,0.519-0.292,0.692-0.549c0.174-0.253,0.261-0.56,0.261-0.909
	c0-0.21-0.036-0.411-0.108-0.604c-0.069-0.195-0.18-0.365-0.328-0.513c-0.147-0.149-0.337-0.268-0.564-0.361
	c-0.225-0.088-0.493-0.134-0.799-0.134h-2.19v5.188h0.953v-1.962h1.148l0.863,1.962h1.025L26.411,52.311z M26.201,51.417
	c-0.145,0.132-0.355,0.197-0.623,0.197h-1.256V50.07h1.244c0.131,0,0.251,0.019,0.357,0.062c0.107,0.043,0.198,0.098,0.27,0.171
	c0.075,0.07,0.132,0.159,0.168,0.249c0.04,0.095,0.057,0.191,0.057,0.297C26.417,51.096,26.347,51.285,26.201,51.417z M2.795,54.37
	c0.254,0.103,0.55,0.156,0.885,0.156c0.338,0,0.634-0.053,0.887-0.156c0.253-0.101,0.466-0.245,0.639-0.426
	c0.17-0.183,0.297-0.4,0.382-0.663c0.085-0.254,0.128-0.534,0.128-0.841v-3.198H4.772v3.182c0,0.372-0.088,0.671-0.262,0.903
	c-0.179,0.228-0.453,0.341-0.831,0.341c-0.373,0-0.648-0.113-0.824-0.341c-0.175-0.231-0.263-0.53-0.263-0.903v-3.182H1.648v3.198
	c0,0.307,0.04,0.587,0.13,0.841c0.084,0.262,0.212,0.48,0.38,0.663C2.331,54.125,2.542,54.269,2.795,54.37z M10.931,54.43v-5.188
	h-0.928v3.513l-2.218-3.513H6.784v5.188h0.928v-3.563l2.247,3.563H10.931z M13.103,49.243h-0.956v5.188h0.956V49.243z M16.471,54.43
	l1.703-5.188h-0.952l-1.249,3.959l-1.259-3.959h-1l1.718,5.188H16.471z M22.477,53.576h-2.749v-1.421h2.419v-0.855h-2.419v-1.202
	h2.749v-0.854h-3.694v5.188h3.694V53.576z M41.792,48.021l-0.41-0.666l-1.345,1.011l0.291,0.474L41.792,48.021z M33.779,49.243
	h-0.957v5.188h0.957V49.243z M53.921,50.097v-0.854h-3.694v5.188h3.694v-0.855h-2.747v-1.421h2.416v-0.855h-2.416v-1.202H53.921z
	 M42.794,53.576h-2.752v-1.421h2.422v-0.855h-2.422v-1.202h2.752v-0.854h-3.695v5.188h3.695V53.576z M49.202,50.748
	c-0.043-0.176-0.107-0.344-0.187-0.503c-0.078-0.162-0.185-0.309-0.317-0.446c-0.172-0.181-0.381-0.319-0.634-0.413
	c-0.25-0.095-0.524-0.143-0.826-0.143h-2.016v5.188h2.016c0.301,0,0.576-0.049,0.826-0.143c0.253-0.097,0.461-0.235,0.634-0.413
	c0.131-0.138,0.238-0.286,0.317-0.451c0.08-0.164,0.144-0.332,0.187-0.51c0.042-0.173,0.071-0.353,0.085-0.538
	c0.011-0.178,0.018-0.362,0.018-0.545c0-0.177-0.007-0.36-0.018-0.544C49.273,51.105,49.244,50.926,49.202,50.748z M48.337,52.208
	c-0.005,0.134-0.018,0.264-0.043,0.393c-0.022,0.132-0.062,0.253-0.11,0.367c-0.046,0.117-0.119,0.222-0.211,0.311
	c-0.089,0.091-0.193,0.162-0.317,0.215c-0.123,0.054-0.262,0.081-0.417,0.081h-1.074v-3.479h1.074c0.155,0,0.295,0.028,0.417,0.085
	c0.124,0.05,0.228,0.122,0.317,0.207c0.091,0.094,0.165,0.197,0.211,0.316c0.049,0.114,0.088,0.238,0.11,0.368
	c0.026,0.127,0.039,0.257,0.043,0.388c0.007,0.131,0.009,0.255,0.009,0.37C48.346,51.947,48.344,52.073,48.337,52.208z
	 M35.967,54.43h0.946V50.12h1.535v-0.877h-4.015v0.877h1.535V54.43z M31.55,51.843c-0.126-0.124-0.278-0.222-0.451-0.298
	c-0.175-0.076-0.36-0.129-0.552-0.158c-0.172-0.024-0.36-0.046-0.568-0.065c-0.207-0.02-0.396-0.044-0.559-0.067
	c-0.157-0.025-0.283-0.083-0.382-0.172c-0.097-0.09-0.147-0.22-0.147-0.392c0-0.099,0.018-0.182,0.048-0.249
	c0.035-0.069,0.073-0.13,0.128-0.191c0.108-0.111,0.239-0.188,0.39-0.227c0.155-0.037,0.306-0.057,0.453-0.057
	c0.143,0,0.287,0.024,0.438,0.074c0.152,0.046,0.264,0.116,0.349,0.204c0.063,0.069,0.116,0.146,0.157,0.24
	c0.041,0.087,0.066,0.181,0.07,0.27h0.966c-0.005-0.217-0.055-0.418-0.152-0.607c-0.095-0.183-0.219-0.349-0.372-0.495
	c-0.175-0.165-0.393-0.293-0.65-0.376c-0.256-0.088-0.522-0.129-0.801-0.129c-0.306,0-0.595,0.048-0.865,0.147
	c-0.266,0.095-0.487,0.232-0.659,0.402c-0.135,0.135-0.245,0.291-0.328,0.461c-0.084,0.173-0.124,0.358-0.124,0.562
	c0,0.217,0.036,0.408,0.106,0.576c0.069,0.169,0.165,0.312,0.288,0.432c0.115,0.119,0.255,0.213,0.414,0.29
	c0.16,0.072,0.327,0.125,0.51,0.153c0.169,0.029,0.36,0.049,0.57,0.065c0.212,0.015,0.403,0.039,0.577,0.077
	c0.162,0.027,0.303,0.087,0.431,0.185c0.124,0.094,0.186,0.239,0.186,0.426c0,0.127-0.02,0.225-0.058,0.296
	c-0.04,0.07-0.089,0.139-0.147,0.202c-0.099,0.104-0.228,0.175-0.39,0.216c-0.159,0.041-0.329,0.063-0.51,0.063
	c-0.151,0-0.306-0.019-0.465-0.056c-0.159-0.036-0.292-0.107-0.406-0.223c-0.076-0.075-0.142-0.171-0.193-0.282
	c-0.05-0.111-0.077-0.229-0.077-0.354H27.81c0,0.248,0.051,0.475,0.154,0.683c0.102,0.209,0.232,0.384,0.386,0.523
	c0.215,0.199,0.459,0.335,0.728,0.416c0.273,0.079,0.544,0.121,0.824,0.121c0.322,0,0.626-0.044,0.91-0.129
	c0.286-0.085,0.53-0.226,0.727-0.429c0.125-0.125,0.232-0.276,0.311-0.451c0.08-0.174,0.123-0.386,0.123-0.631
	c0-0.217-0.04-0.417-0.114-0.591C31.784,52.118,31.68,51.969,31.55,51.843z M26.411,52.311c0.289-0.108,0.519-0.292,0.692-0.549
	c0.174-0.253,0.261-0.56,0.261-0.909c0-0.21-0.036-0.411-0.108-0.604c-0.069-0.195-0.18-0.365-0.328-0.513
	c-0.147-0.149-0.337-0.268-0.564-0.361c-0.225-0.088-0.493-0.134-0.799-0.134h-2.19v5.188h0.953v-1.962h1.148l0.863,1.962h1.025
	L26.411,52.311z M26.201,51.417c-0.145,0.132-0.355,0.197-0.623,0.197h-1.256V50.07h1.244c0.131,0,0.251,0.019,0.357,0.062
	c0.107,0.043,0.198,0.098,0.27,0.171c0.075,0.07,0.132,0.159,0.168,0.249c0.04,0.095,0.057,0.191,0.057,0.297
	C26.417,51.096,26.347,51.285,26.201,51.417z M2.795,54.37c0.254,0.103,0.55,0.156,0.885,0.156c0.338,0,0.634-0.053,0.887-0.156
	c0.253-0.101,0.466-0.245,0.639-0.426c0.17-0.183,0.297-0.4,0.382-0.663c0.085-0.254,0.128-0.534,0.128-0.841v-3.198H4.772v3.182
	c0,0.372-0.088,0.671-0.262,0.903c-0.179,0.228-0.453,0.341-0.831,0.341c-0.373,0-0.648-0.113-0.824-0.341
	c-0.175-0.231-0.263-0.53-0.263-0.903v-3.182H1.648v3.198c0,0.307,0.04,0.587,0.13,0.841c0.084,0.262,0.212,0.48,0.38,0.663
	C2.331,54.125,2.542,54.269,2.795,54.37z M10.931,54.43v-5.188h-0.928v3.513l-2.218-3.513H6.784v5.188h0.928v-3.563l2.247,3.563
	H10.931z M13.103,49.243h-0.956v5.188h0.956V49.243z M16.471,54.43l1.703-5.188h-0.952l-1.249,3.959l-1.259-3.959h-1l1.718,5.188
	H16.471z M22.477,53.576h-2.749v-1.421h2.419v-0.855h-2.419v-1.202h2.749v-0.854h-3.694v5.188h3.694V53.576z M41.792,48.021
	l-0.41-0.666l-1.345,1.011l0.291,0.474L41.792,48.021z M33.779,49.243h-0.957v5.188h0.957V49.243z M53.921,50.097v-0.854h-3.694
	v5.188h3.694v-0.855h-2.747v-1.421h2.416v-0.855h-2.416v-1.202H53.921z M42.794,53.576h-2.752v-1.421h2.422v-0.855h-2.422v-1.202
	h2.752v-0.854h-3.695v5.188h3.695V53.576z M49.202,50.748c-0.043-0.176-0.107-0.344-0.187-0.503
	c-0.078-0.162-0.185-0.309-0.317-0.446c-0.172-0.181-0.381-0.319-0.634-0.413c-0.25-0.095-0.524-0.143-0.826-0.143h-2.016v5.188
	h2.016c0.301,0,0.576-0.049,0.826-0.143c0.253-0.097,0.461-0.235,0.634-0.413c0.131-0.138,0.238-0.286,0.317-0.451
	c0.08-0.164,0.144-0.332,0.187-0.51c0.042-0.173,0.071-0.353,0.085-0.538c0.011-0.178,0.018-0.362,0.018-0.545
	c0-0.177-0.007-0.36-0.018-0.544C49.273,51.105,49.244,50.926,49.202,50.748z M48.337,52.208c-0.005,0.134-0.018,0.264-0.043,0.393
	c-0.022,0.132-0.062,0.253-0.11,0.367c-0.046,0.117-0.119,0.222-0.211,0.311c-0.089,0.091-0.193,0.162-0.317,0.215
	c-0.123,0.054-0.262,0.081-0.417,0.081h-1.074v-3.479h1.074c0.155,0,0.295,0.028,0.417,0.085c0.124,0.05,0.228,0.122,0.317,0.207
	c0.091,0.094,0.165,0.197,0.211,0.316c0.049,0.114,0.088,0.238,0.11,0.368c0.026,0.127,0.039,0.257,0.043,0.388
	c0.007,0.131,0.009,0.255,0.009,0.37C48.346,51.947,48.344,52.073,48.337,52.208z M35.967,54.43h0.946V50.12h1.535v-0.877h-4.015
	v0.877h1.535V54.43z M31.55,51.843c-0.126-0.124-0.278-0.222-0.451-0.298c-0.175-0.076-0.36-0.129-0.552-0.158
	c-0.172-0.024-0.36-0.046-0.568-0.065c-0.207-0.02-0.396-0.044-0.559-0.067c-0.157-0.025-0.283-0.083-0.382-0.172
	c-0.097-0.09-0.147-0.22-0.147-0.392c0-0.099,0.018-0.182,0.048-0.249c0.035-0.069,0.073-0.13,0.128-0.191
	c0.108-0.111,0.239-0.188,0.39-0.227c0.155-0.037,0.306-0.057,0.453-0.057c0.143,0,0.287,0.024,0.438,0.074
	c0.152,0.046,0.264,0.116,0.349,0.204c0.063,0.069,0.116,0.146,0.157,0.24c0.041,0.087,0.066,0.181,0.07,0.27h0.966
	c-0.005-0.217-0.055-0.418-0.152-0.607c-0.095-0.183-0.219-0.349-0.372-0.495c-0.175-0.165-0.393-0.293-0.65-0.376
	c-0.256-0.088-0.522-0.129-0.801-0.129c-0.306,0-0.595,0.048-0.865,0.147c-0.266,0.095-0.487,0.232-0.659,0.402
	c-0.135,0.135-0.245,0.291-0.328,0.461c-0.084,0.173-0.124,0.358-0.124,0.562c0,0.217,0.036,0.408,0.106,0.576
	c0.069,0.169,0.165,0.312,0.288,0.432c0.115,0.119,0.255,0.213,0.414,0.29c0.16,0.072,0.327,0.125,0.51,0.153
	c0.169,0.029,0.36,0.049,0.57,0.065c0.212,0.015,0.403,0.039,0.577,0.077c0.162,0.027,0.303,0.087,0.431,0.185
	c0.124,0.094,0.186,0.239,0.186,0.426c0,0.127-0.02,0.225-0.058,0.296c-0.04,0.07-0.089,0.139-0.147,0.202
	c-0.099,0.104-0.228,0.175-0.39,0.216c-0.159,0.041-0.329,0.063-0.51,0.063c-0.151,0-0.306-0.019-0.465-0.056
	c-0.159-0.036-0.292-0.107-0.406-0.223c-0.076-0.075-0.142-0.171-0.193-0.282c-0.05-0.111-0.077-0.229-0.077-0.354H27.81
	c0,0.248,0.051,0.475,0.154,0.683c0.102,0.209,0.232,0.384,0.386,0.523c0.215,0.199,0.459,0.335,0.728,0.416
	c0.273,0.079,0.544,0.121,0.824,0.121c0.322,0,0.626-0.044,0.91-0.129c0.286-0.085,0.53-0.226,0.727-0.429
	c0.125-0.125,0.232-0.276,0.311-0.451c0.08-0.174,0.123-0.386,0.123-0.631c0-0.217-0.04-0.417-0.114-0.591
	C31.784,52.118,31.68,51.969,31.55,51.843z M5.851,61.992l-2.802-4.442H1.781v6.561h1.176v-4.504l2.84,4.504h1.231v-6.561H5.851
	V61.992z M33.738,56.752l0.367,0.524l1.332-0.773l1.331,0.773l0.372-0.524l-1.703-1.276L33.738,56.752z M34.763,57.733l-2.237,6.377
	h1.201l0.425-1.257h2.611l0.423,1.257h1.25l-2.24-6.377H34.763z M34.523,61.769l0.933-2.764l0.933,2.764H34.523z M43.82,64.11h4.67
	v-1.082h-3.478v-1.796h3.062v-1.081h-3.062v-1.517h3.478v-1.085h-4.67V64.11z M37.88,58.66h1.943v5.45h1.193v-5.45h1.942v-1.111
	H37.88V58.66z M50.859,57.549h-1.193v6.561h4.237v-1.128h-3.044V57.549z M21.668,59.839c0.027-0.171,0.073-0.33,0.133-0.486
	c0.061-0.153,0.147-0.288,0.261-0.404c0.128-0.145,0.279-0.251,0.456-0.324c0.176-0.074,0.361-0.111,0.55-0.111
	c0.204,0,0.393,0.032,0.572,0.101c0.174,0.067,0.312,0.171,0.419,0.307c0.084,0.105,0.155,0.21,0.205,0.319
	c0.048,0.108,0.078,0.233,0.09,0.375h1.221c-0.03-0.26-0.096-0.511-0.195-0.76c-0.097-0.247-0.241-0.469-0.433-0.667
	c-0.248-0.251-0.534-0.44-0.859-0.567c-0.328-0.127-0.668-0.191-1.021-0.191c-0.35,0-0.685,0.061-1.002,0.182
	c-0.317,0.122-0.605,0.307-0.858,0.559c-0.179,0.179-0.323,0.367-0.431,0.565c-0.107,0.199-0.19,0.408-0.244,0.63
	c-0.056,0.223-0.091,0.456-0.111,0.701c-0.019,0.25-0.027,0.505-0.027,0.771c0,0.27,0.008,0.527,0.027,0.774
	c0.019,0.242,0.055,0.473,0.111,0.696c0.055,0.224,0.137,0.434,0.244,0.629c0.108,0.197,0.252,0.387,0.431,0.564
	c0.253,0.256,0.541,0.44,0.858,0.557c0.317,0.115,0.652,0.175,1.002,0.175c0.353,0,0.693-0.066,1.021-0.2
	c0.324-0.132,0.611-0.324,0.859-0.578c0.192-0.199,0.336-0.421,0.433-0.671c0.099-0.249,0.165-0.503,0.195-0.763h-1.221
	c-0.023,0.27-0.122,0.509-0.295,0.716c-0.106,0.135-0.245,0.238-0.419,0.308c-0.18,0.069-0.368,0.105-0.572,0.105
	c-0.188,0-0.373-0.038-0.55-0.111c-0.177-0.071-0.328-0.182-0.456-0.322c-0.114-0.119-0.2-0.254-0.261-0.407
	c-0.06-0.153-0.106-0.317-0.133-0.485c-0.029-0.169-0.044-0.337-0.051-0.512c-0.007-0.174-0.009-0.333-0.009-0.48
	c0-0.149,0.002-0.309,0.009-0.479C21.623,60.178,21.639,60.008,21.668,59.839z M30.525,60.113h-2.693v-2.564h-1.195v6.561h1.195
	v-2.861h2.693v2.861h1.192v-6.561h-1.192V60.113z M18.211,61.576c0,0.466-0.11,0.848-0.334,1.138
	c-0.221,0.291-0.57,0.435-1.043,0.435c-0.475,0-0.823-0.144-1.046-0.435c-0.224-0.29-0.334-0.671-0.334-1.138v-4.027h-1.194v4.043
	c0,0.392,0.053,0.745,0.163,1.069c0.108,0.325,0.269,0.601,0.485,0.834c0.216,0.232,0.486,0.41,0.807,0.54
	c0.318,0.13,0.693,0.195,1.119,0.195c0.424,0,0.797-0.066,1.119-0.195c0.32-0.129,0.588-0.308,0.804-0.54
	c0.215-0.232,0.378-0.509,0.484-0.834c0.108-0.324,0.164-0.678,0.164-1.069v-4.043h-1.195V61.576z M8.599,64.11h4.673v-1.082H9.793
	v-1.796h3.063v-1.081H9.793v-1.517h3.479v-1.085H8.599V64.11z"/>
</svg>
